<mxfile host="Electron" modified="2024-03-27T14:15:31.758Z" agent="Mozilla/5.0 (Windows NT 10.0; Win64; x64) AppleWebKit/537.36 (KHTML, like Gecko) draw.io/24.1.0 Chrome/120.0.6099.109 Electron/28.1.0 Safari/537.36" etag="W6D5MH_OTVawD5G63xpx" version="24.1.0" type="device">
  <diagram name="ページ1" id="LE8fIzdrHe0wcv1LTvfw">
    <mxGraphModel dx="1732" dy="1036" grid="1" gridSize="10" guides="1" tooltips="1" connect="1" arrows="1" fold="1" page="1" pageScale="1" pageWidth="1600" pageHeight="1200" math="0" shadow="0">
      <root>
        <mxCell id="0" />
        <mxCell id="cFaB45KztUIKXS-_cTrr-4" value="背景" style="locked=1;" parent="0" visible="0" />
        <mxCell id="cFaB45KztUIKXS-_cTrr-5" value="" style="rounded=0;whiteSpace=wrap;html=1;strokeWidth=3;" parent="cFaB45KztUIKXS-_cTrr-4" vertex="1">
          <mxGeometry x="1" y="1" width="1595" height="1180" as="geometry" />
        </mxCell>
        <mxCell id="cFaB45KztUIKXS-_cTrr-6" value="" style="rounded=0;whiteSpace=wrap;html=1;fillColor=#B3B3B3;fontColor=#333333;strokeColor=#666666;" parent="cFaB45KztUIKXS-_cTrr-4" vertex="1">
          <mxGeometry width="1595" height="60" as="geometry" />
        </mxCell>
        <mxCell id="cFaB45KztUIKXS-_cTrr-7" value="&lt;font style=&quot;font-size: 48px;&quot;&gt;×&lt;/font&gt;" style="rounded=0;whiteSpace=wrap;html=1;" parent="cFaB45KztUIKXS-_cTrr-4" vertex="1">
          <mxGeometry x="1550" y="10" width="40" height="40" as="geometry" />
        </mxCell>
        <mxCell id="cFaB45KztUIKXS-_cTrr-8" value="" style="rounded=0;whiteSpace=wrap;html=1;" parent="cFaB45KztUIKXS-_cTrr-4" vertex="1">
          <mxGeometry x="830" y="670" width="120" height="60" as="geometry" />
        </mxCell>
        <mxCell id="cFaB45KztUIKXS-_cTrr-9" value="ウインドウ" style="" parent="0" />
        <mxCell id="cFaB45KztUIKXS-_cTrr-10" value="" style="rounded=0;whiteSpace=wrap;html=1;strokeWidth=3;" parent="cFaB45KztUIKXS-_cTrr-9" vertex="1">
          <mxGeometry x="1" y="1" width="3129" height="2719" as="geometry" />
        </mxCell>
        <mxCell id="Gg7uW7H3-yNJ5iqTuaE7-0" value="" style="line;strokeWidth=2;direction=south;html=1;dashed=1;dashPattern=12 12;" parent="cFaB45KztUIKXS-_cTrr-9" vertex="1">
          <mxGeometry x="1540" y="10" width="10" height="2690" as="geometry" />
        </mxCell>
        <mxCell id="cFaB45KztUIKXS-_cTrr-11" value="" style="rounded=0;whiteSpace=wrap;html=1;fillColor=#B3B3B3;fontColor=#333333;strokeColor=#666666;" parent="cFaB45KztUIKXS-_cTrr-9" vertex="1">
          <mxGeometry width="1595" height="60" as="geometry" />
        </mxCell>
        <mxCell id="cFaB45KztUIKXS-_cTrr-12" value="&lt;font style=&quot;font-size: 48px;&quot;&gt;×&lt;/font&gt;" style="rounded=0;whiteSpace=wrap;html=1;" parent="cFaB45KztUIKXS-_cTrr-9" vertex="1">
          <mxGeometry x="1550" y="10" width="40" height="40" as="geometry" />
        </mxCell>
        <mxCell id="cFaB45KztUIKXS-_cTrr-14" value="名称未設定レイヤ" style="locked=1;" parent="0" />
        <mxCell id="cDHuPOXS9VM1hq6QltUD-43" value="&lt;span style=&quot;font-size: 30px;&quot;&gt;政治家コード&lt;/span&gt;" style="rounded=0;whiteSpace=wrap;html=1;align=right;dashed=1;dashPattern=8 8;verticalAlign=bottom;" parent="cFaB45KztUIKXS-_cTrr-14" vertex="1">
          <mxGeometry x="29" y="86" width="310" height="46" as="geometry" />
        </mxCell>
        <mxCell id="cDHuPOXS9VM1hq6QltUD-46" value="&lt;span style=&quot;font-size: 30px;&quot;&gt;当選議員&lt;/span&gt;" style="rounded=0;whiteSpace=wrap;html=1;align=left;" parent="cFaB45KztUIKXS-_cTrr-14" vertex="1">
          <mxGeometry x="360" y="233" width="310" height="48" as="geometry" />
        </mxCell>
        <mxCell id="cDHuPOXS9VM1hq6QltUD-47" value="&lt;span style=&quot;font-size: 30px;&quot;&gt;政治家氏名かな&lt;/span&gt;&lt;div&gt;&lt;span style=&quot;font-size: 30px;&quot;&gt;姓・名・ミドルネーム&lt;/span&gt;&lt;/div&gt;" style="rounded=0;whiteSpace=wrap;html=1;align=right;dashed=1;dashPattern=8 8;verticalAlign=bottom;" parent="cFaB45KztUIKXS-_cTrr-14" vertex="1">
          <mxGeometry x="30" y="337" width="309" height="85" as="geometry" />
        </mxCell>
        <mxCell id="cDHuPOXS9VM1hq6QltUD-49" value="&lt;font style=&quot;font-size: 30px;&quot;&gt;7777&lt;/font&gt;" style="rounded=0;whiteSpace=wrap;html=1;align=left;fillColor=#CCCCCC;" parent="cFaB45KztUIKXS-_cTrr-14" vertex="1">
          <mxGeometry x="360" y="87" width="210" height="48" as="geometry" />
        </mxCell>
        <mxCell id="kxWkAaZomFuKM2yIZcbC-107" value="&lt;span style=&quot;font-size: 30px;&quot;&gt;123&lt;br&gt;&lt;/span&gt;" style="rounded=0;whiteSpace=wrap;html=1;align=right;fillColor=#CCCCCC;" parent="cFaB45KztUIKXS-_cTrr-14" vertex="1">
          <mxGeometry x="360" y="445" width="170" height="48" as="geometry" />
        </mxCell>
        <mxCell id="kxWkAaZomFuKM2yIZcbC-108" value="&lt;span style=&quot;font-size: 30px;&quot;&gt;所属議会&lt;/span&gt;" style="rounded=0;whiteSpace=wrap;html=1;align=right;dashed=1;dashPattern=8 8;verticalAlign=bottom;" parent="cFaB45KztUIKXS-_cTrr-14" vertex="1">
          <mxGeometry x="30" y="447" width="310" height="46" as="geometry" />
        </mxCell>
        <mxCell id="kxWkAaZomFuKM2yIZcbC-109" value="&lt;font style=&quot;font-size: 30px;&quot;&gt;架空市市議会&lt;/font&gt;&lt;span style=&quot;font-size: 30px;&quot;&gt;&lt;br&gt;&lt;/span&gt;" style="rounded=0;whiteSpace=wrap;html=1;align=left;fillColor=#CCCCCC;" parent="cFaB45KztUIKXS-_cTrr-14" vertex="1">
          <mxGeometry x="550" y="445" width="560" height="48" as="geometry" />
        </mxCell>
        <mxCell id="kxWkAaZomFuKM2yIZcbC-110" value="&lt;span style=&quot;font-size: 30px;&quot;&gt;所属会派&lt;/span&gt;" style="rounded=0;whiteSpace=wrap;html=1;align=right;dashed=1;dashPattern=8 8;verticalAlign=bottom;" parent="cFaB45KztUIKXS-_cTrr-14" vertex="1">
          <mxGeometry x="30" y="657" width="310" height="46" as="geometry" />
        </mxCell>
        <mxCell id="rvHy--GGJRlwA5ta0w8w-0" value="&lt;span style=&quot;font-size: 30px;&quot;&gt;検索して指定&lt;/span&gt;" style="rounded=1;whiteSpace=wrap;html=1;" parent="cFaB45KztUIKXS-_cTrr-14" vertex="1">
          <mxGeometry x="1140" y="445" width="210" height="51" as="geometry" />
        </mxCell>
        <mxCell id="rvHy--GGJRlwA5ta0w8w-2" value="&lt;span style=&quot;font-size: 30px;&quot;&gt;保存&lt;/span&gt;" style="rounded=1;whiteSpace=wrap;html=1;" parent="cFaB45KztUIKXS-_cTrr-14" vertex="1">
          <mxGeometry x="1343" y="2619" width="210" height="60" as="geometry" />
        </mxCell>
        <mxCell id="rvHy--GGJRlwA5ta0w8w-3" value="&lt;span style=&quot;font-size: 30px;&quot;&gt;キャンセル&lt;/span&gt;" style="rounded=1;whiteSpace=wrap;html=1;" parent="cFaB45KztUIKXS-_cTrr-14" vertex="1">
          <mxGeometry x="1093" y="2619" width="210" height="60" as="geometry" />
        </mxCell>
        <mxCell id="kdS2us7QfJVSO1tXntZr-58" value="&lt;span style=&quot;font-size: 30px;&quot;&gt;政治家氏名&lt;/span&gt;&lt;div&gt;&lt;span style=&quot;font-size: 30px;&quot;&gt;姓・名・ミドルネーム&lt;/span&gt;&lt;/div&gt;" style="rounded=0;whiteSpace=wrap;html=1;align=right;dashed=1;dashPattern=8 8;verticalAlign=bottom;" parent="cFaB45KztUIKXS-_cTrr-14" vertex="1">
          <mxGeometry x="29" y="231" width="310" height="82" as="geometry" />
        </mxCell>
        <mxCell id="dH7iZlgDa5DfNUpbSnMx-1" value="&lt;span style=&quot;font-size: 30px;&quot;&gt;太郎&lt;/span&gt;" style="rounded=0;whiteSpace=wrap;html=1;align=left;" parent="cFaB45KztUIKXS-_cTrr-14" vertex="1">
          <mxGeometry x="710" y="233" width="310" height="48" as="geometry" />
        </mxCell>
        <mxCell id="dH7iZlgDa5DfNUpbSnMx-2" value="" style="rounded=0;whiteSpace=wrap;html=1;align=left;" parent="cFaB45KztUIKXS-_cTrr-14" vertex="1">
          <mxGeometry x="1060" y="233" width="310" height="48" as="geometry" />
        </mxCell>
        <mxCell id="dH7iZlgDa5DfNUpbSnMx-3" value="&lt;span style=&quot;font-size: 30px;&quot;&gt;▼なんちゃって無所属&lt;/span&gt;" style="rounded=0;whiteSpace=wrap;html=1;align=left;" parent="cFaB45KztUIKXS-_cTrr-14" vertex="1">
          <mxGeometry x="880" y="655" width="380" height="48" as="geometry" />
        </mxCell>
        <mxCell id="dH7iZlgDa5DfNUpbSnMx-4" value="&lt;span style=&quot;font-size: 30px;&quot;&gt;会派役職&lt;/span&gt;" style="rounded=0;whiteSpace=wrap;html=1;align=right;dashed=1;dashPattern=8 8;verticalAlign=bottom;" parent="cFaB45KztUIKXS-_cTrr-14" vertex="1">
          <mxGeometry x="30" y="727" width="310" height="46" as="geometry" />
        </mxCell>
        <mxCell id="dH7iZlgDa5DfNUpbSnMx-5" value="&lt;span style=&quot;font-size: 30px;&quot;&gt;▼会計責任者&lt;/span&gt;" style="rounded=0;whiteSpace=wrap;html=1;align=left;" parent="cFaB45KztUIKXS-_cTrr-14" vertex="1">
          <mxGeometry x="880" y="726" width="380" height="48" as="geometry" />
        </mxCell>
        <mxCell id="dH7iZlgDa5DfNUpbSnMx-6" value="&lt;span style=&quot;font-size: 30px;&quot;&gt;所属委員会&lt;/span&gt;" style="rounded=0;whiteSpace=wrap;html=1;align=right;dashed=1;dashPattern=8 8;verticalAlign=bottom;" parent="cFaB45KztUIKXS-_cTrr-14" vertex="1">
          <mxGeometry x="30" y="797" width="310" height="46" as="geometry" />
        </mxCell>
        <mxCell id="dH7iZlgDa5DfNUpbSnMx-7" value="&lt;span style=&quot;font-size: 30px;&quot;&gt;▼農林常任委員会&lt;/span&gt;" style="rounded=0;whiteSpace=wrap;html=1;align=left;" parent="cFaB45KztUIKXS-_cTrr-14" vertex="1">
          <mxGeometry x="880" y="796" width="380" height="48" as="geometry" />
        </mxCell>
        <mxCell id="dH7iZlgDa5DfNUpbSnMx-8" value="&lt;span style=&quot;font-size: 30px;&quot;&gt;委員会役職&lt;/span&gt;" style="rounded=0;whiteSpace=wrap;html=1;align=right;dashed=1;dashPattern=8 8;verticalAlign=bottom;" parent="cFaB45KztUIKXS-_cTrr-14" vertex="1">
          <mxGeometry x="30" y="867" width="310" height="46" as="geometry" />
        </mxCell>
        <mxCell id="dH7iZlgDa5DfNUpbSnMx-9" value="&lt;span style=&quot;font-size: 30px;&quot;&gt;▼なし&lt;/span&gt;" style="rounded=0;whiteSpace=wrap;html=1;align=left;" parent="cFaB45KztUIKXS-_cTrr-14" vertex="1">
          <mxGeometry x="880" y="866" width="380" height="48" as="geometry" />
        </mxCell>
        <mxCell id="dH7iZlgDa5DfNUpbSnMx-10" value="&lt;span style=&quot;font-size: 30px;&quot;&gt;とうせんぎいいん&lt;/span&gt;" style="rounded=0;whiteSpace=wrap;html=1;align=left;" parent="cFaB45KztUIKXS-_cTrr-14" vertex="1">
          <mxGeometry x="360" y="340" width="310" height="48" as="geometry" />
        </mxCell>
        <mxCell id="dH7iZlgDa5DfNUpbSnMx-11" value="&lt;span style=&quot;font-size: 30px;&quot;&gt;たろう&lt;/span&gt;" style="rounded=0;whiteSpace=wrap;html=1;align=left;" parent="cFaB45KztUIKXS-_cTrr-14" vertex="1">
          <mxGeometry x="710" y="340" width="310" height="48" as="geometry" />
        </mxCell>
        <mxCell id="dH7iZlgDa5DfNUpbSnMx-12" value="" style="rounded=0;whiteSpace=wrap;html=1;align=left;" parent="cFaB45KztUIKXS-_cTrr-14" vertex="1">
          <mxGeometry x="1060" y="340" width="310" height="48" as="geometry" />
        </mxCell>
        <mxCell id="dH7iZlgDa5DfNUpbSnMx-13" value="&lt;span style=&quot;font-size: 30px;&quot;&gt;政治家氏名&lt;/span&gt;" style="rounded=0;whiteSpace=wrap;html=1;align=right;dashed=1;dashPattern=8 8;verticalAlign=bottom;" parent="cFaB45KztUIKXS-_cTrr-14" vertex="1">
          <mxGeometry x="29" y="156" width="310" height="46" as="geometry" />
        </mxCell>
        <mxCell id="dH7iZlgDa5DfNUpbSnMx-14" value="&lt;span style=&quot;font-size: 30px;&quot;&gt;当選議員　太郎&lt;/span&gt;" style="rounded=0;whiteSpace=wrap;html=1;align=left;fillColor=#CCCCCC;" parent="cFaB45KztUIKXS-_cTrr-14" vertex="1">
          <mxGeometry x="360" y="157" width="970" height="48" as="geometry" />
        </mxCell>
        <mxCell id="dH7iZlgDa5DfNUpbSnMx-15" value="&lt;span style=&quot;font-size: 30px;&quot;&gt;検索して指定&lt;/span&gt;" style="rounded=1;whiteSpace=wrap;html=1;" parent="cFaB45KztUIKXS-_cTrr-14" vertex="1">
          <mxGeometry x="1280" y="656" width="210" height="51" as="geometry" />
        </mxCell>
        <mxCell id="dH7iZlgDa5DfNUpbSnMx-16" value="&lt;span style=&quot;font-size: 30px;&quot;&gt;検索して指定&lt;/span&gt;" style="rounded=1;whiteSpace=wrap;html=1;" parent="cFaB45KztUIKXS-_cTrr-14" vertex="1">
          <mxGeometry x="1280" y="726" width="210" height="51" as="geometry" />
        </mxCell>
        <mxCell id="dH7iZlgDa5DfNUpbSnMx-17" value="&lt;span style=&quot;font-size: 30px;&quot;&gt;検索して指定&lt;/span&gt;" style="rounded=1;whiteSpace=wrap;html=1;" parent="cFaB45KztUIKXS-_cTrr-14" vertex="1">
          <mxGeometry x="1280" y="796" width="210" height="51" as="geometry" />
        </mxCell>
        <mxCell id="dH7iZlgDa5DfNUpbSnMx-18" value="&lt;span style=&quot;font-size: 30px;&quot;&gt;検索して指定&lt;/span&gt;" style="rounded=1;whiteSpace=wrap;html=1;" parent="cFaB45KztUIKXS-_cTrr-14" vertex="1">
          <mxGeometry x="1275" y="866" width="210" height="51" as="geometry" />
        </mxCell>
        <mxCell id="dH7iZlgDa5DfNUpbSnMx-19" value="&lt;span style=&quot;font-size: 30px;&quot;&gt;234&lt;br&gt;&lt;/span&gt;" style="rounded=0;whiteSpace=wrap;html=1;align=right;fillColor=#CCCCCC;" parent="cFaB45KztUIKXS-_cTrr-14" vertex="1">
          <mxGeometry x="360" y="655" width="170" height="48" as="geometry" />
        </mxCell>
        <mxCell id="dH7iZlgDa5DfNUpbSnMx-20" value="&lt;span style=&quot;font-size: 30px;&quot;&gt;保守派会派&lt;/span&gt;" style="rounded=0;whiteSpace=wrap;html=1;align=left;fillColor=#CCCCCC;" parent="cFaB45KztUIKXS-_cTrr-14" vertex="1">
          <mxGeometry x="550" y="655" width="300" height="48" as="geometry" />
        </mxCell>
        <mxCell id="dH7iZlgDa5DfNUpbSnMx-21" value="&lt;span style=&quot;font-size: 30px;&quot;&gt;345&lt;br&gt;&lt;/span&gt;" style="rounded=0;whiteSpace=wrap;html=1;align=right;fillColor=#CCCCCC;" parent="cFaB45KztUIKXS-_cTrr-14" vertex="1">
          <mxGeometry x="360" y="725" width="170" height="48" as="geometry" />
        </mxCell>
        <mxCell id="dH7iZlgDa5DfNUpbSnMx-22" value="&lt;font style=&quot;font-size: 30px;&quot;&gt;会計責任者&lt;/font&gt;&lt;span style=&quot;font-size: 30px;&quot;&gt;&lt;br&gt;&lt;/span&gt;" style="rounded=0;whiteSpace=wrap;html=1;align=left;fillColor=#CCCCCC;" parent="cFaB45KztUIKXS-_cTrr-14" vertex="1">
          <mxGeometry x="550" y="725" width="300" height="48" as="geometry" />
        </mxCell>
        <mxCell id="dH7iZlgDa5DfNUpbSnMx-23" value="&lt;span style=&quot;font-size: 30px;&quot;&gt;456&lt;br&gt;&lt;/span&gt;" style="rounded=0;whiteSpace=wrap;html=1;align=right;fillColor=#CCCCCC;" parent="cFaB45KztUIKXS-_cTrr-14" vertex="1">
          <mxGeometry x="360" y="795" width="170" height="48" as="geometry" />
        </mxCell>
        <mxCell id="dH7iZlgDa5DfNUpbSnMx-24" value="&lt;span style=&quot;font-size: 30px;&quot;&gt;農林常任委員会&lt;/span&gt;" style="rounded=0;whiteSpace=wrap;html=1;align=left;fillColor=#CCCCCC;" parent="cFaB45KztUIKXS-_cTrr-14" vertex="1">
          <mxGeometry x="550" y="795" width="300" height="48" as="geometry" />
        </mxCell>
        <mxCell id="dH7iZlgDa5DfNUpbSnMx-25" value="&lt;span style=&quot;font-size: 30px;&quot;&gt;567&lt;br&gt;&lt;/span&gt;" style="rounded=0;whiteSpace=wrap;html=1;align=right;fillColor=#CCCCCC;" parent="cFaB45KztUIKXS-_cTrr-14" vertex="1">
          <mxGeometry x="360" y="865" width="170" height="48" as="geometry" />
        </mxCell>
        <mxCell id="dH7iZlgDa5DfNUpbSnMx-26" value="&lt;font style=&quot;font-size: 30px;&quot;&gt;なし&lt;/font&gt;&lt;span style=&quot;font-size: 30px;&quot;&gt;&lt;br&gt;&lt;/span&gt;" style="rounded=0;whiteSpace=wrap;html=1;align=left;fillColor=#CCCCCC;" parent="cFaB45KztUIKXS-_cTrr-14" vertex="1">
          <mxGeometry x="550" y="865" width="300" height="48" as="geometry" />
        </mxCell>
        <mxCell id="dH7iZlgDa5DfNUpbSnMx-27" value="&lt;span style=&quot;font-size: 30px;&quot;&gt;議会選挙区&lt;/span&gt;" style="rounded=0;whiteSpace=wrap;html=1;align=right;dashed=1;dashPattern=8 8;verticalAlign=bottom;" parent="cFaB45KztUIKXS-_cTrr-14" vertex="1">
          <mxGeometry x="30" y="510" width="310" height="46" as="geometry" />
        </mxCell>
        <mxCell id="dH7iZlgDa5DfNUpbSnMx-28" value="&lt;span style=&quot;font-size: 30px;&quot;&gt;▼〇〇地区合区&lt;/span&gt;" style="rounded=0;whiteSpace=wrap;html=1;align=left;" parent="cFaB45KztUIKXS-_cTrr-14" vertex="1">
          <mxGeometry x="880" y="511" width="380" height="48" as="geometry" />
        </mxCell>
        <mxCell id="dH7iZlgDa5DfNUpbSnMx-29" value="&lt;span style=&quot;font-size: 30px;&quot;&gt;検索して指定&lt;/span&gt;" style="rounded=1;whiteSpace=wrap;html=1;" parent="cFaB45KztUIKXS-_cTrr-14" vertex="1">
          <mxGeometry x="1280" y="512" width="210" height="51" as="geometry" />
        </mxCell>
        <mxCell id="dH7iZlgDa5DfNUpbSnMx-30" value="&lt;span style=&quot;font-size: 30px;&quot;&gt;9876&lt;br&gt;&lt;/span&gt;" style="rounded=0;whiteSpace=wrap;html=1;align=right;fillColor=#CCCCCC;" parent="cFaB45KztUIKXS-_cTrr-14" vertex="1">
          <mxGeometry x="360" y="511" width="170" height="48" as="geometry" />
        </mxCell>
        <mxCell id="dH7iZlgDa5DfNUpbSnMx-31" value="&lt;span style=&quot;font-size: 30px;&quot;&gt;〇〇地区合区&lt;/span&gt;" style="rounded=0;whiteSpace=wrap;html=1;align=left;fillColor=#CCCCCC;" parent="cFaB45KztUIKXS-_cTrr-14" vertex="1">
          <mxGeometry x="550" y="511" width="300" height="48" as="geometry" />
        </mxCell>
        <mxCell id="dH7iZlgDa5DfNUpbSnMx-32" value="&lt;span style=&quot;font-size: 30px;&quot;&gt;政党&lt;/span&gt;" style="rounded=0;whiteSpace=wrap;html=1;align=right;dashed=1;dashPattern=8 8;verticalAlign=bottom;" parent="cFaB45KztUIKXS-_cTrr-14" vertex="1">
          <mxGeometry x="30" y="937" width="310" height="46" as="geometry" />
        </mxCell>
        <mxCell id="dH7iZlgDa5DfNUpbSnMx-33" value="&lt;span style=&quot;font-size: 30px;&quot;&gt;▼議員倍増の会&lt;/span&gt;" style="rounded=0;whiteSpace=wrap;html=1;align=left;" parent="cFaB45KztUIKXS-_cTrr-14" vertex="1">
          <mxGeometry x="880" y="936" width="380" height="48" as="geometry" />
        </mxCell>
        <mxCell id="dH7iZlgDa5DfNUpbSnMx-34" value="&lt;span style=&quot;font-size: 30px;&quot;&gt;検索して指定&lt;/span&gt;" style="rounded=1;whiteSpace=wrap;html=1;" parent="cFaB45KztUIKXS-_cTrr-14" vertex="1">
          <mxGeometry x="1275" y="936" width="210" height="51" as="geometry" />
        </mxCell>
        <mxCell id="dH7iZlgDa5DfNUpbSnMx-35" value="&lt;span style=&quot;font-size: 30px;&quot;&gt;567&lt;br&gt;&lt;/span&gt;" style="rounded=0;whiteSpace=wrap;html=1;align=right;fillColor=#CCCCCC;" parent="cFaB45KztUIKXS-_cTrr-14" vertex="1">
          <mxGeometry x="360" y="935" width="170" height="48" as="geometry" />
        </mxCell>
        <mxCell id="dH7iZlgDa5DfNUpbSnMx-36" value="&lt;font style=&quot;font-size: 30px;&quot;&gt;議員倍増の会&lt;/font&gt;&lt;span style=&quot;font-size: 30px;&quot;&gt;&lt;br&gt;&lt;/span&gt;" style="rounded=0;whiteSpace=wrap;html=1;align=left;fillColor=#CCCCCC;" parent="cFaB45KztUIKXS-_cTrr-14" vertex="1">
          <mxGeometry x="550" y="935" width="300" height="48" as="geometry" />
        </mxCell>
        <mxCell id="dH7iZlgDa5DfNUpbSnMx-37" value="&lt;span style=&quot;font-size: 30px;&quot;&gt;政党役職&lt;/span&gt;" style="rounded=0;whiteSpace=wrap;html=1;align=right;dashed=1;dashPattern=8 8;verticalAlign=bottom;" parent="cFaB45KztUIKXS-_cTrr-14" vertex="1">
          <mxGeometry x="30" y="1007" width="310" height="46" as="geometry" />
        </mxCell>
        <mxCell id="dH7iZlgDa5DfNUpbSnMx-38" value="&lt;span style=&quot;font-size: 30px;&quot;&gt;▼幹事長&lt;/span&gt;" style="rounded=0;whiteSpace=wrap;html=1;align=left;" parent="cFaB45KztUIKXS-_cTrr-14" vertex="1">
          <mxGeometry x="880" y="1006" width="380" height="48" as="geometry" />
        </mxCell>
        <mxCell id="dH7iZlgDa5DfNUpbSnMx-39" value="&lt;span style=&quot;font-size: 30px;&quot;&gt;検索して指定&lt;/span&gt;" style="rounded=1;whiteSpace=wrap;html=1;" parent="cFaB45KztUIKXS-_cTrr-14" vertex="1">
          <mxGeometry x="1275" y="1006" width="210" height="51" as="geometry" />
        </mxCell>
        <mxCell id="dH7iZlgDa5DfNUpbSnMx-40" value="&lt;span style=&quot;font-size: 30px;&quot;&gt;567&lt;br&gt;&lt;/span&gt;" style="rounded=0;whiteSpace=wrap;html=1;align=right;fillColor=#CCCCCC;" parent="cFaB45KztUIKXS-_cTrr-14" vertex="1">
          <mxGeometry x="360" y="1005" width="170" height="48" as="geometry" />
        </mxCell>
        <mxCell id="dH7iZlgDa5DfNUpbSnMx-41" value="&lt;font style=&quot;font-size: 30px;&quot;&gt;幹事長&lt;/font&gt;&lt;span style=&quot;font-size: 30px;&quot;&gt;&lt;br&gt;&lt;/span&gt;" style="rounded=0;whiteSpace=wrap;html=1;align=left;fillColor=#CCCCCC;" parent="cFaB45KztUIKXS-_cTrr-14" vertex="1">
          <mxGeometry x="550" y="1005" width="300" height="48" as="geometry" />
        </mxCell>
        <mxCell id="dH7iZlgDa5DfNUpbSnMx-42" value="&lt;span style=&quot;font-size: 30px;&quot;&gt;政党支部政策集団&lt;/span&gt;" style="rounded=0;whiteSpace=wrap;html=1;align=right;dashed=1;dashPattern=8 8;verticalAlign=bottom;" parent="cFaB45KztUIKXS-_cTrr-14" vertex="1">
          <mxGeometry x="30" y="1365" width="310" height="46" as="geometry" />
        </mxCell>
        <mxCell id="dH7iZlgDa5DfNUpbSnMx-43" value="&lt;span style=&quot;font-size: 30px;&quot;&gt;▼親玉派&lt;/span&gt;" style="rounded=0;whiteSpace=wrap;html=1;align=left;" parent="cFaB45KztUIKXS-_cTrr-14" vertex="1">
          <mxGeometry x="880" y="1364" width="380" height="48" as="geometry" />
        </mxCell>
        <mxCell id="dH7iZlgDa5DfNUpbSnMx-44" value="&lt;span style=&quot;font-size: 30px;&quot;&gt;検索して指定&lt;/span&gt;" style="rounded=1;whiteSpace=wrap;html=1;" parent="cFaB45KztUIKXS-_cTrr-14" vertex="1">
          <mxGeometry x="1275" y="1364" width="210" height="51" as="geometry" />
        </mxCell>
        <mxCell id="dH7iZlgDa5DfNUpbSnMx-45" value="&lt;span style=&quot;font-size: 30px;&quot;&gt;567&lt;br&gt;&lt;/span&gt;" style="rounded=0;whiteSpace=wrap;html=1;align=right;fillColor=#CCCCCC;" parent="cFaB45KztUIKXS-_cTrr-14" vertex="1">
          <mxGeometry x="360" y="1363" width="170" height="48" as="geometry" />
        </mxCell>
        <mxCell id="dH7iZlgDa5DfNUpbSnMx-46" value="&lt;span style=&quot;font-size: 30px;&quot;&gt;親玉派&lt;/span&gt;&lt;span style=&quot;font-size: 30px;&quot;&gt;&lt;br&gt;&lt;/span&gt;" style="rounded=0;whiteSpace=wrap;html=1;align=left;fillColor=#CCCCCC;" parent="cFaB45KztUIKXS-_cTrr-14" vertex="1">
          <mxGeometry x="550" y="1363" width="300" height="48" as="geometry" />
        </mxCell>
        <mxCell id="dH7iZlgDa5DfNUpbSnMx-47" value="&lt;span style=&quot;font-size: 30px;&quot;&gt;政党支部政策集団役職&lt;/span&gt;" style="rounded=0;whiteSpace=wrap;html=1;align=right;dashed=1;dashPattern=8 8;verticalAlign=bottom;" parent="cFaB45KztUIKXS-_cTrr-14" vertex="1">
          <mxGeometry x="30" y="1433" width="310" height="46" as="geometry" />
        </mxCell>
        <mxCell id="dH7iZlgDa5DfNUpbSnMx-48" value="&lt;span style=&quot;font-size: 30px;&quot;&gt;▼副幹事長&lt;/span&gt;" style="rounded=0;whiteSpace=wrap;html=1;align=left;" parent="cFaB45KztUIKXS-_cTrr-14" vertex="1">
          <mxGeometry x="880" y="1432" width="380" height="48" as="geometry" />
        </mxCell>
        <mxCell id="dH7iZlgDa5DfNUpbSnMx-49" value="&lt;span style=&quot;font-size: 30px;&quot;&gt;検索して指定&lt;/span&gt;" style="rounded=1;whiteSpace=wrap;html=1;" parent="cFaB45KztUIKXS-_cTrr-14" vertex="1">
          <mxGeometry x="1275" y="1432" width="210" height="51" as="geometry" />
        </mxCell>
        <mxCell id="dH7iZlgDa5DfNUpbSnMx-50" value="&lt;span style=&quot;font-size: 30px;&quot;&gt;567&lt;br&gt;&lt;/span&gt;" style="rounded=0;whiteSpace=wrap;html=1;align=right;fillColor=#CCCCCC;" parent="cFaB45KztUIKXS-_cTrr-14" vertex="1">
          <mxGeometry x="360" y="1431" width="170" height="48" as="geometry" />
        </mxCell>
        <mxCell id="dH7iZlgDa5DfNUpbSnMx-51" value="&lt;font style=&quot;font-size: 30px;&quot;&gt;副幹事長&lt;/font&gt;&lt;span style=&quot;font-size: 30px;&quot;&gt;&lt;br&gt;&lt;/span&gt;" style="rounded=0;whiteSpace=wrap;html=1;align=left;fillColor=#CCCCCC;" parent="cFaB45KztUIKXS-_cTrr-14" vertex="1">
          <mxGeometry x="550" y="1431" width="300" height="48" as="geometry" />
        </mxCell>
        <mxCell id="dH7iZlgDa5DfNUpbSnMx-52" value="&lt;span style=&quot;font-size: 30px;&quot;&gt;政党政策集団&lt;/span&gt;" style="rounded=0;whiteSpace=wrap;html=1;align=right;dashed=1;dashPattern=8 8;verticalAlign=bottom;" parent="cFaB45KztUIKXS-_cTrr-14" vertex="1">
          <mxGeometry x="30" y="1084" width="310" height="46" as="geometry" />
        </mxCell>
        <mxCell id="dH7iZlgDa5DfNUpbSnMx-53" value="&lt;span style=&quot;font-size: 30px;&quot;&gt;▼議員倍増の会&lt;/span&gt;" style="rounded=0;whiteSpace=wrap;html=1;align=left;" parent="cFaB45KztUIKXS-_cTrr-14" vertex="1">
          <mxGeometry x="880" y="1083" width="380" height="48" as="geometry" />
        </mxCell>
        <mxCell id="dH7iZlgDa5DfNUpbSnMx-54" value="&lt;span style=&quot;font-size: 30px;&quot;&gt;検索して指定&lt;/span&gt;" style="rounded=1;whiteSpace=wrap;html=1;" parent="cFaB45KztUIKXS-_cTrr-14" vertex="1">
          <mxGeometry x="1275" y="1083" width="210" height="51" as="geometry" />
        </mxCell>
        <mxCell id="dH7iZlgDa5DfNUpbSnMx-55" value="&lt;span style=&quot;font-size: 30px;&quot;&gt;567&lt;br&gt;&lt;/span&gt;" style="rounded=0;whiteSpace=wrap;html=1;align=right;fillColor=#CCCCCC;" parent="cFaB45KztUIKXS-_cTrr-14" vertex="1">
          <mxGeometry x="360" y="1082" width="170" height="48" as="geometry" />
        </mxCell>
        <mxCell id="dH7iZlgDa5DfNUpbSnMx-56" value="&lt;font style=&quot;font-size: 30px;&quot;&gt;議員倍増の会&lt;/font&gt;&lt;span style=&quot;font-size: 30px;&quot;&gt;&lt;br&gt;&lt;/span&gt;" style="rounded=0;whiteSpace=wrap;html=1;align=left;fillColor=#CCCCCC;" parent="cFaB45KztUIKXS-_cTrr-14" vertex="1">
          <mxGeometry x="550" y="1082" width="300" height="48" as="geometry" />
        </mxCell>
        <mxCell id="dH7iZlgDa5DfNUpbSnMx-57" value="&lt;span style=&quot;font-size: 30px;&quot;&gt;政党政策集団役職&lt;/span&gt;" style="rounded=0;whiteSpace=wrap;html=1;align=right;dashed=1;dashPattern=8 8;verticalAlign=bottom;" parent="cFaB45KztUIKXS-_cTrr-14" vertex="1">
          <mxGeometry x="30" y="1154" width="310" height="46" as="geometry" />
        </mxCell>
        <mxCell id="dH7iZlgDa5DfNUpbSnMx-58" value="&lt;span style=&quot;font-size: 30px;&quot;&gt;▼幹事長&lt;/span&gt;" style="rounded=0;whiteSpace=wrap;html=1;align=left;" parent="cFaB45KztUIKXS-_cTrr-14" vertex="1">
          <mxGeometry x="880" y="1153" width="380" height="48" as="geometry" />
        </mxCell>
        <mxCell id="dH7iZlgDa5DfNUpbSnMx-59" value="&lt;span style=&quot;font-size: 30px;&quot;&gt;検索して指定&lt;/span&gt;" style="rounded=1;whiteSpace=wrap;html=1;" parent="cFaB45KztUIKXS-_cTrr-14" vertex="1">
          <mxGeometry x="1275" y="1153" width="210" height="51" as="geometry" />
        </mxCell>
        <mxCell id="dH7iZlgDa5DfNUpbSnMx-60" value="&lt;span style=&quot;font-size: 30px;&quot;&gt;567&lt;br&gt;&lt;/span&gt;" style="rounded=0;whiteSpace=wrap;html=1;align=right;fillColor=#CCCCCC;" parent="cFaB45KztUIKXS-_cTrr-14" vertex="1">
          <mxGeometry x="360" y="1152" width="170" height="48" as="geometry" />
        </mxCell>
        <mxCell id="dH7iZlgDa5DfNUpbSnMx-61" value="&lt;font style=&quot;font-size: 30px;&quot;&gt;幹事長&lt;/font&gt;&lt;span style=&quot;font-size: 30px;&quot;&gt;&lt;br&gt;&lt;/span&gt;" style="rounded=0;whiteSpace=wrap;html=1;align=left;fillColor=#CCCCCC;" parent="cFaB45KztUIKXS-_cTrr-14" vertex="1">
          <mxGeometry x="550" y="1152" width="300" height="48" as="geometry" />
        </mxCell>
        <mxCell id="dH7iZlgDa5DfNUpbSnMx-62" value="&lt;span style=&quot;font-size: 30px;&quot;&gt;現職／候補者&lt;/span&gt;" style="rounded=0;whiteSpace=wrap;html=1;align=right;dashed=1;dashPattern=8 8;verticalAlign=bottom;" parent="cFaB45KztUIKXS-_cTrr-14" vertex="1">
          <mxGeometry x="30" y="582" width="310" height="46" as="geometry" />
        </mxCell>
        <mxCell id="dH7iZlgDa5DfNUpbSnMx-63" value="&lt;font style=&quot;font-size: 84px;&quot;&gt;○&lt;/font&gt;" style="text;html=1;strokeColor=none;fillColor=none;align=center;verticalAlign=middle;whiteSpace=wrap;rounded=0;fontSize=60;" parent="cFaB45KztUIKXS-_cTrr-14" vertex="1">
          <mxGeometry x="370" y="587" width="60" height="30" as="geometry" />
        </mxCell>
        <mxCell id="dH7iZlgDa5DfNUpbSnMx-64" value="&lt;font style=&quot;font-size: 48px;&quot;&gt;●&lt;/font&gt;" style="text;html=1;strokeColor=none;fillColor=none;align=center;verticalAlign=middle;whiteSpace=wrap;rounded=0;fontSize=48;" parent="cFaB45KztUIKXS-_cTrr-14" vertex="1">
          <mxGeometry x="370" y="589" width="60" height="30" as="geometry" />
        </mxCell>
        <mxCell id="dH7iZlgDa5DfNUpbSnMx-65" value="&lt;font style=&quot;font-size: 30px;&quot;&gt;現職&lt;/font&gt;" style="text;html=1;strokeColor=none;fillColor=none;align=left;verticalAlign=middle;whiteSpace=wrap;rounded=0;" parent="cFaB45KztUIKXS-_cTrr-14" vertex="1">
          <mxGeometry x="425" y="576" width="275" height="60" as="geometry" />
        </mxCell>
        <mxCell id="dH7iZlgDa5DfNUpbSnMx-66" value="&lt;font style=&quot;font-size: 84px;&quot;&gt;○&lt;/font&gt;" style="text;html=1;strokeColor=none;fillColor=none;align=center;verticalAlign=middle;whiteSpace=wrap;rounded=0;fontSize=60;" parent="cFaB45KztUIKXS-_cTrr-14" vertex="1">
          <mxGeometry x="510" y="587" width="60" height="30" as="geometry" />
        </mxCell>
        <mxCell id="dH7iZlgDa5DfNUpbSnMx-67" value="&lt;span style=&quot;font-size: 30px;&quot;&gt;候補者&lt;/span&gt;" style="text;html=1;strokeColor=none;fillColor=none;align=left;verticalAlign=middle;whiteSpace=wrap;rounded=0;" parent="cFaB45KztUIKXS-_cTrr-14" vertex="1">
          <mxGeometry x="572" y="577" width="275" height="60" as="geometry" />
        </mxCell>
        <mxCell id="dH7iZlgDa5DfNUpbSnMx-68" value="&lt;span style=&quot;font-size: 30px;&quot;&gt;政治団体(最新提出年)&lt;/span&gt;" style="rounded=0;whiteSpace=wrap;html=1;align=left;dashed=1;dashPattern=8 8;verticalAlign=bottom;" parent="cFaB45KztUIKXS-_cTrr-14" vertex="1">
          <mxGeometry x="29" y="1556" width="611" height="46" as="geometry" />
        </mxCell>
        <mxCell id="dH7iZlgDa5DfNUpbSnMx-94" value="&lt;span style=&quot;font-size: 30px;&quot;&gt;政党支部&lt;/span&gt;" style="rounded=0;whiteSpace=wrap;html=1;align=right;dashed=1;dashPattern=8 8;verticalAlign=bottom;" parent="cFaB45KztUIKXS-_cTrr-14" vertex="1">
          <mxGeometry x="31" y="1223" width="310" height="46" as="geometry" />
        </mxCell>
        <mxCell id="dH7iZlgDa5DfNUpbSnMx-95" value="&lt;span style=&quot;font-size: 30px;&quot;&gt;▼&lt;/span&gt;&lt;span style=&quot;font-size: 30px;&quot;&gt;議員倍増の会3区&lt;/span&gt;" style="rounded=0;whiteSpace=wrap;html=1;align=left;" parent="cFaB45KztUIKXS-_cTrr-14" vertex="1">
          <mxGeometry x="881" y="1222" width="380" height="48" as="geometry" />
        </mxCell>
        <mxCell id="dH7iZlgDa5DfNUpbSnMx-96" value="&lt;span style=&quot;font-size: 30px;&quot;&gt;検索して指定&lt;/span&gt;" style="rounded=1;whiteSpace=wrap;html=1;" parent="cFaB45KztUIKXS-_cTrr-14" vertex="1">
          <mxGeometry x="1276" y="1222" width="210" height="51" as="geometry" />
        </mxCell>
        <mxCell id="dH7iZlgDa5DfNUpbSnMx-97" value="&lt;span style=&quot;font-size: 30px;&quot;&gt;567&lt;br&gt;&lt;/span&gt;" style="rounded=0;whiteSpace=wrap;html=1;align=right;fillColor=#CCCCCC;" parent="cFaB45KztUIKXS-_cTrr-14" vertex="1">
          <mxGeometry x="361" y="1221" width="170" height="48" as="geometry" />
        </mxCell>
        <mxCell id="dH7iZlgDa5DfNUpbSnMx-98" value="&lt;span style=&quot;font-size: 30px;&quot;&gt;議員倍増の会3区&lt;/span&gt;&lt;span style=&quot;font-size: 30px;&quot;&gt;&lt;br&gt;&lt;/span&gt;" style="rounded=0;whiteSpace=wrap;html=1;align=left;fillColor=#CCCCCC;" parent="cFaB45KztUIKXS-_cTrr-14" vertex="1">
          <mxGeometry x="551" y="1221" width="300" height="48" as="geometry" />
        </mxCell>
        <mxCell id="dH7iZlgDa5DfNUpbSnMx-99" value="&lt;span style=&quot;font-size: 30px;&quot;&gt;政党支部役職&lt;/span&gt;" style="rounded=0;whiteSpace=wrap;html=1;align=right;dashed=1;dashPattern=8 8;verticalAlign=bottom;" parent="cFaB45KztUIKXS-_cTrr-14" vertex="1">
          <mxGeometry x="31" y="1291" width="310" height="46" as="geometry" />
        </mxCell>
        <mxCell id="dH7iZlgDa5DfNUpbSnMx-100" value="&lt;span style=&quot;font-size: 30px;&quot;&gt;▼支部長&lt;/span&gt;" style="rounded=0;whiteSpace=wrap;html=1;align=left;" parent="cFaB45KztUIKXS-_cTrr-14" vertex="1">
          <mxGeometry x="881" y="1290" width="380" height="48" as="geometry" />
        </mxCell>
        <mxCell id="dH7iZlgDa5DfNUpbSnMx-101" value="&lt;span style=&quot;font-size: 30px;&quot;&gt;検索して指定&lt;/span&gt;" style="rounded=1;whiteSpace=wrap;html=1;" parent="cFaB45KztUIKXS-_cTrr-14" vertex="1">
          <mxGeometry x="1276" y="1290" width="210" height="51" as="geometry" />
        </mxCell>
        <mxCell id="dH7iZlgDa5DfNUpbSnMx-102" value="&lt;span style=&quot;font-size: 30px;&quot;&gt;567&lt;br&gt;&lt;/span&gt;" style="rounded=0;whiteSpace=wrap;html=1;align=right;fillColor=#CCCCCC;" parent="cFaB45KztUIKXS-_cTrr-14" vertex="1">
          <mxGeometry x="361" y="1289" width="170" height="48" as="geometry" />
        </mxCell>
        <mxCell id="dH7iZlgDa5DfNUpbSnMx-103" value="&lt;font style=&quot;font-size: 30px;&quot;&gt;支部長&lt;/font&gt;&lt;span style=&quot;font-size: 30px;&quot;&gt;&lt;br&gt;&lt;/span&gt;" style="rounded=0;whiteSpace=wrap;html=1;align=left;fillColor=#CCCCCC;" parent="cFaB45KztUIKXS-_cTrr-14" vertex="1">
          <mxGeometry x="551" y="1289" width="300" height="48" as="geometry" />
        </mxCell>
        <mxCell id="dH7iZlgDa5DfNUpbSnMx-117" value="" style="group" parent="cFaB45KztUIKXS-_cTrr-14" vertex="1" connectable="0">
          <mxGeometry x="40" y="1640" width="2450" height="280" as="geometry" />
        </mxCell>
        <mxCell id="dH7iZlgDa5DfNUpbSnMx-69" value="" style="childLayout=tableLayout;recursiveResize=0;shadow=0;fillColor=none;align=left;" parent="dH7iZlgDa5DfNUpbSnMx-117" vertex="1">
          <mxGeometry width="2450" height="280" as="geometry" />
        </mxCell>
        <mxCell id="dH7iZlgDa5DfNUpbSnMx-70" value="" style="shape=tableRow;horizontal=0;startSize=0;swimlaneHead=0;swimlaneBody=0;top=0;left=0;bottom=0;right=0;dropTarget=0;collapsible=0;recursiveResize=0;expand=0;fontStyle=0;fillColor=none;strokeColor=inherit;" parent="dH7iZlgDa5DfNUpbSnMx-69" vertex="1">
          <mxGeometry width="2450" height="71" as="geometry" />
        </mxCell>
        <mxCell id="dH7iZlgDa5DfNUpbSnMx-71" value="" style="connectable=0;recursiveResize=0;strokeColor=inherit;fillColor=none;align=center;whiteSpace=wrap;html=1;" parent="dH7iZlgDa5DfNUpbSnMx-70" vertex="1">
          <mxGeometry width="70" height="71" as="geometry">
            <mxRectangle width="70" height="71" as="alternateBounds" />
          </mxGeometry>
        </mxCell>
        <mxCell id="dH7iZlgDa5DfNUpbSnMx-72" value="&lt;font style=&quot;font-size: 30px;&quot;&gt;政治団体名&lt;/font&gt;" style="connectable=0;recursiveResize=0;strokeColor=inherit;fillColor=none;align=center;whiteSpace=wrap;html=1;" parent="dH7iZlgDa5DfNUpbSnMx-70" vertex="1">
          <mxGeometry x="70" width="540" height="71" as="geometry">
            <mxRectangle width="540" height="71" as="alternateBounds" />
          </mxGeometry>
        </mxCell>
        <mxCell id="dH7iZlgDa5DfNUpbSnMx-88" value="&lt;font style=&quot;font-size: 30px;&quot;&gt;提出年&lt;/font&gt;" style="connectable=0;recursiveResize=0;strokeColor=inherit;fillColor=none;align=center;whiteSpace=wrap;html=1;" parent="dH7iZlgDa5DfNUpbSnMx-70" vertex="1">
          <mxGeometry x="610" width="150" height="71" as="geometry">
            <mxRectangle width="150" height="71" as="alternateBounds" />
          </mxGeometry>
        </mxCell>
        <mxCell id="dH7iZlgDa5DfNUpbSnMx-112" value="&lt;font style=&quot;font-size: 30px;&quot;&gt;提出先&lt;/font&gt;" style="connectable=0;recursiveResize=0;strokeColor=inherit;fillColor=none;align=center;whiteSpace=wrap;html=1;" parent="dH7iZlgDa5DfNUpbSnMx-70" vertex="1">
          <mxGeometry x="760" width="390" height="71" as="geometry">
            <mxRectangle width="390" height="71" as="alternateBounds" />
          </mxGeometry>
        </mxCell>
        <mxCell id="dH7iZlgDa5DfNUpbSnMx-85" value="&lt;font style=&quot;font-size: 30px;&quot;&gt;代表者&lt;/font&gt;" style="connectable=0;recursiveResize=0;strokeColor=inherit;fillColor=none;align=center;whiteSpace=wrap;html=1;" parent="dH7iZlgDa5DfNUpbSnMx-70" vertex="1">
          <mxGeometry x="1150" width="280" height="71" as="geometry">
            <mxRectangle width="280" height="71" as="alternateBounds" />
          </mxGeometry>
        </mxCell>
        <mxCell id="dH7iZlgDa5DfNUpbSnMx-82" value="&lt;font style=&quot;font-size: 30px;&quot;&gt;会計責任者&lt;/font&gt;" style="connectable=0;recursiveResize=0;strokeColor=inherit;fillColor=none;align=center;whiteSpace=wrap;html=1;" parent="dH7iZlgDa5DfNUpbSnMx-70" vertex="1">
          <mxGeometry x="1430" width="270" height="71" as="geometry">
            <mxRectangle width="270" height="71" as="alternateBounds" />
          </mxGeometry>
        </mxCell>
        <mxCell id="dH7iZlgDa5DfNUpbSnMx-73" value="&lt;font style=&quot;font-size: 30px;&quot;&gt;団体区分&lt;/font&gt;" style="connectable=0;recursiveResize=0;strokeColor=inherit;fillColor=none;align=center;whiteSpace=wrap;html=1;" parent="dH7iZlgDa5DfNUpbSnMx-70" vertex="1">
          <mxGeometry x="1700" width="270" height="71" as="geometry">
            <mxRectangle width="270" height="71" as="alternateBounds" />
          </mxGeometry>
        </mxCell>
        <mxCell id="dH7iZlgDa5DfNUpbSnMx-91" value="&lt;font style=&quot;font-size: 30px;&quot;&gt;対象となる政治家&lt;/font&gt;" style="connectable=0;recursiveResize=0;strokeColor=inherit;fillColor=none;align=center;whiteSpace=wrap;html=1;" parent="dH7iZlgDa5DfNUpbSnMx-70" vertex="1">
          <mxGeometry x="1970" width="480" height="71" as="geometry">
            <mxRectangle width="480" height="71" as="alternateBounds" />
          </mxGeometry>
        </mxCell>
        <mxCell id="dH7iZlgDa5DfNUpbSnMx-74" style="shape=tableRow;horizontal=0;startSize=0;swimlaneHead=0;swimlaneBody=0;top=0;left=0;bottom=0;right=0;dropTarget=0;collapsible=0;recursiveResize=0;expand=0;fontStyle=0;fillColor=none;strokeColor=inherit;align=left;" parent="dH7iZlgDa5DfNUpbSnMx-69" vertex="1">
          <mxGeometry y="71" width="2450" height="69" as="geometry" />
        </mxCell>
        <mxCell id="dH7iZlgDa5DfNUpbSnMx-75" value="&lt;font style=&quot;font-size: 30px;&quot;&gt;☑&lt;/font&gt;" style="connectable=0;recursiveResize=0;strokeColor=inherit;fillColor=none;align=center;whiteSpace=wrap;html=1;" parent="dH7iZlgDa5DfNUpbSnMx-74" vertex="1">
          <mxGeometry width="70" height="69" as="geometry">
            <mxRectangle width="70" height="69" as="alternateBounds" />
          </mxGeometry>
        </mxCell>
        <mxCell id="dH7iZlgDa5DfNUpbSnMx-76" value="&lt;font style=&quot;font-size: 30px;&quot;&gt;ちゃらんぽらん政治団体&lt;/font&gt;" style="connectable=0;recursiveResize=0;strokeColor=inherit;fillColor=none;align=left;whiteSpace=wrap;html=1;" parent="dH7iZlgDa5DfNUpbSnMx-74" vertex="1">
          <mxGeometry x="70" width="540" height="69" as="geometry">
            <mxRectangle width="540" height="69" as="alternateBounds" />
          </mxGeometry>
        </mxCell>
        <mxCell id="dH7iZlgDa5DfNUpbSnMx-89" value="&lt;font style=&quot;font-size: 30px;&quot;&gt;2022&lt;/font&gt;" style="connectable=0;recursiveResize=0;strokeColor=inherit;fillColor=none;align=center;whiteSpace=wrap;html=1;" parent="dH7iZlgDa5DfNUpbSnMx-74" vertex="1">
          <mxGeometry x="610" width="150" height="69" as="geometry">
            <mxRectangle width="150" height="69" as="alternateBounds" />
          </mxGeometry>
        </mxCell>
        <mxCell id="dH7iZlgDa5DfNUpbSnMx-113" value="&lt;font style=&quot;font-size: 30px;&quot;&gt;総務省&lt;/font&gt;" style="connectable=0;recursiveResize=0;strokeColor=inherit;fillColor=none;align=left;whiteSpace=wrap;html=1;" parent="dH7iZlgDa5DfNUpbSnMx-74" vertex="1">
          <mxGeometry x="760" width="390" height="69" as="geometry">
            <mxRectangle width="390" height="69" as="alternateBounds" />
          </mxGeometry>
        </mxCell>
        <mxCell id="dH7iZlgDa5DfNUpbSnMx-86" value="&lt;span style=&quot;font-size: 30px;&quot;&gt;当選議員　太郎&lt;/span&gt;" style="connectable=0;recursiveResize=0;strokeColor=inherit;fillColor=none;align=left;whiteSpace=wrap;html=1;" parent="dH7iZlgDa5DfNUpbSnMx-74" vertex="1">
          <mxGeometry x="1150" width="280" height="69" as="geometry">
            <mxRectangle width="280" height="69" as="alternateBounds" />
          </mxGeometry>
        </mxCell>
        <mxCell id="dH7iZlgDa5DfNUpbSnMx-83" value="&lt;font style=&quot;font-size: 30px;&quot;&gt;責任者　香織&lt;/font&gt;" style="connectable=0;recursiveResize=0;strokeColor=inherit;fillColor=none;align=left;whiteSpace=wrap;html=1;" parent="dH7iZlgDa5DfNUpbSnMx-74" vertex="1">
          <mxGeometry x="1430" width="270" height="69" as="geometry">
            <mxRectangle width="270" height="69" as="alternateBounds" />
          </mxGeometry>
        </mxCell>
        <mxCell id="dH7iZlgDa5DfNUpbSnMx-77" value="&lt;font style=&quot;font-size: 30px;&quot;&gt;その他の団体&lt;/font&gt;" style="connectable=0;recursiveResize=0;strokeColor=inherit;fillColor=none;align=center;whiteSpace=wrap;html=1;" parent="dH7iZlgDa5DfNUpbSnMx-74" vertex="1">
          <mxGeometry x="1700" width="270" height="69" as="geometry">
            <mxRectangle width="270" height="69" as="alternateBounds" />
          </mxGeometry>
        </mxCell>
        <mxCell id="dH7iZlgDa5DfNUpbSnMx-92" value="&lt;span style=&quot;font-size: 30px;&quot;&gt;当選議員　太郎&lt;/span&gt;" style="connectable=0;recursiveResize=0;strokeColor=inherit;fillColor=none;align=left;whiteSpace=wrap;html=1;" parent="dH7iZlgDa5DfNUpbSnMx-74" vertex="1">
          <mxGeometry x="1970" width="480" height="69" as="geometry">
            <mxRectangle width="480" height="69" as="alternateBounds" />
          </mxGeometry>
        </mxCell>
        <mxCell id="dH7iZlgDa5DfNUpbSnMx-78" style="shape=tableRow;horizontal=0;startSize=0;swimlaneHead=0;swimlaneBody=0;top=0;left=0;bottom=0;right=0;dropTarget=0;collapsible=0;recursiveResize=0;expand=0;fontStyle=0;fillColor=none;strokeColor=inherit;" parent="dH7iZlgDa5DfNUpbSnMx-69" vertex="1">
          <mxGeometry y="140" width="2450" height="70" as="geometry" />
        </mxCell>
        <mxCell id="dH7iZlgDa5DfNUpbSnMx-79" value="&lt;span style=&quot;font-size: 30px;&quot;&gt;☑&lt;/span&gt;" style="connectable=0;recursiveResize=0;strokeColor=inherit;fillColor=none;align=center;whiteSpace=wrap;html=1;" parent="dH7iZlgDa5DfNUpbSnMx-78" vertex="1">
          <mxGeometry width="70" height="70" as="geometry">
            <mxRectangle width="70" height="70" as="alternateBounds" />
          </mxGeometry>
        </mxCell>
        <mxCell id="dH7iZlgDa5DfNUpbSnMx-80" value="&lt;span style=&quot;font-size: 30px;&quot;&gt;議員倍増の会3区&lt;/span&gt;" style="connectable=0;recursiveResize=0;strokeColor=inherit;fillColor=none;align=left;whiteSpace=wrap;html=1;" parent="dH7iZlgDa5DfNUpbSnMx-78" vertex="1">
          <mxGeometry x="70" width="540" height="70" as="geometry">
            <mxRectangle width="540" height="70" as="alternateBounds" />
          </mxGeometry>
        </mxCell>
        <mxCell id="dH7iZlgDa5DfNUpbSnMx-90" value="&lt;span style=&quot;font-size: 30px;&quot;&gt;2022&lt;/span&gt;" style="connectable=0;recursiveResize=0;strokeColor=inherit;fillColor=none;align=center;whiteSpace=wrap;html=1;" parent="dH7iZlgDa5DfNUpbSnMx-78" vertex="1">
          <mxGeometry x="610" width="150" height="70" as="geometry">
            <mxRectangle width="150" height="70" as="alternateBounds" />
          </mxGeometry>
        </mxCell>
        <mxCell id="dH7iZlgDa5DfNUpbSnMx-114" value="&lt;font style=&quot;font-size: 30px;&quot;&gt;山形県選挙管理委員会&lt;/font&gt;" style="connectable=0;recursiveResize=0;strokeColor=inherit;fillColor=none;align=left;whiteSpace=wrap;html=1;" parent="dH7iZlgDa5DfNUpbSnMx-78" vertex="1">
          <mxGeometry x="760" width="390" height="70" as="geometry">
            <mxRectangle width="390" height="70" as="alternateBounds" />
          </mxGeometry>
        </mxCell>
        <mxCell id="dH7iZlgDa5DfNUpbSnMx-87" value="&lt;span style=&quot;font-size: 30px;&quot;&gt;当選議員　太郎&lt;/span&gt;" style="connectable=0;recursiveResize=0;strokeColor=inherit;fillColor=none;align=left;whiteSpace=wrap;html=1;" parent="dH7iZlgDa5DfNUpbSnMx-78" vertex="1">
          <mxGeometry x="1150" width="280" height="70" as="geometry">
            <mxRectangle width="280" height="70" as="alternateBounds" />
          </mxGeometry>
        </mxCell>
        <mxCell id="dH7iZlgDa5DfNUpbSnMx-84" value="&lt;font style=&quot;font-size: 30px;&quot;&gt;党会計　英夫&lt;/font&gt;" style="connectable=0;recursiveResize=0;strokeColor=inherit;fillColor=none;align=left;whiteSpace=wrap;html=1;" parent="dH7iZlgDa5DfNUpbSnMx-78" vertex="1">
          <mxGeometry x="1430" width="270" height="70" as="geometry">
            <mxRectangle width="270" height="70" as="alternateBounds" />
          </mxGeometry>
        </mxCell>
        <mxCell id="dH7iZlgDa5DfNUpbSnMx-81" value="&lt;font style=&quot;font-size: 30px;&quot;&gt;政党支部&lt;/font&gt;" style="connectable=0;recursiveResize=0;strokeColor=inherit;fillColor=none;align=center;whiteSpace=wrap;html=1;" parent="dH7iZlgDa5DfNUpbSnMx-78" vertex="1">
          <mxGeometry x="1700" width="270" height="70" as="geometry">
            <mxRectangle width="270" height="70" as="alternateBounds" />
          </mxGeometry>
        </mxCell>
        <mxCell id="dH7iZlgDa5DfNUpbSnMx-93" value="&lt;span style=&quot;font-size: 30px;&quot;&gt;当選議員　太郎&lt;/span&gt;" style="connectable=0;recursiveResize=0;strokeColor=inherit;fillColor=none;align=left;whiteSpace=wrap;html=1;" parent="dH7iZlgDa5DfNUpbSnMx-78" vertex="1">
          <mxGeometry x="1970" width="480" height="70" as="geometry">
            <mxRectangle width="480" height="70" as="alternateBounds" />
          </mxGeometry>
        </mxCell>
        <mxCell id="dH7iZlgDa5DfNUpbSnMx-104" style="shape=tableRow;horizontal=0;startSize=0;swimlaneHead=0;swimlaneBody=0;top=0;left=0;bottom=0;right=0;dropTarget=0;collapsible=0;recursiveResize=0;expand=0;fontStyle=0;fillColor=none;strokeColor=inherit;" parent="dH7iZlgDa5DfNUpbSnMx-69" vertex="1">
          <mxGeometry y="210" width="2450" height="70" as="geometry" />
        </mxCell>
        <mxCell id="dH7iZlgDa5DfNUpbSnMx-105" value="&lt;span style=&quot;font-size: 30px;&quot;&gt;☑&lt;/span&gt;" style="connectable=0;recursiveResize=0;strokeColor=inherit;fillColor=none;align=center;whiteSpace=wrap;html=1;" parent="dH7iZlgDa5DfNUpbSnMx-104" vertex="1">
          <mxGeometry width="70" height="70" as="geometry">
            <mxRectangle width="70" height="70" as="alternateBounds" />
          </mxGeometry>
        </mxCell>
        <mxCell id="dH7iZlgDa5DfNUpbSnMx-106" value="" style="connectable=0;recursiveResize=0;strokeColor=inherit;fillColor=none;align=left;whiteSpace=wrap;html=1;" parent="dH7iZlgDa5DfNUpbSnMx-104" vertex="1">
          <mxGeometry x="70" width="540" height="70" as="geometry">
            <mxRectangle width="540" height="70" as="alternateBounds" />
          </mxGeometry>
        </mxCell>
        <mxCell id="dH7iZlgDa5DfNUpbSnMx-107" value="&lt;span style=&quot;font-size: 30px;&quot;&gt;2022&lt;/span&gt;" style="connectable=0;recursiveResize=0;strokeColor=inherit;fillColor=none;align=center;whiteSpace=wrap;html=1;" parent="dH7iZlgDa5DfNUpbSnMx-104" vertex="1">
          <mxGeometry x="610" width="150" height="70" as="geometry">
            <mxRectangle width="150" height="70" as="alternateBounds" />
          </mxGeometry>
        </mxCell>
        <mxCell id="dH7iZlgDa5DfNUpbSnMx-115" value="&lt;font style=&quot;font-size: 30px;&quot;&gt;架空市選挙管理委員会&lt;/font&gt;" style="connectable=0;recursiveResize=0;strokeColor=inherit;fillColor=none;align=left;whiteSpace=wrap;html=1;" parent="dH7iZlgDa5DfNUpbSnMx-104" vertex="1">
          <mxGeometry x="760" width="390" height="70" as="geometry">
            <mxRectangle width="390" height="70" as="alternateBounds" />
          </mxGeometry>
        </mxCell>
        <mxCell id="dH7iZlgDa5DfNUpbSnMx-108" value="&lt;font style=&quot;font-size: 30px;&quot;&gt;支援者　花子&lt;/font&gt;" style="connectable=0;recursiveResize=0;strokeColor=inherit;fillColor=none;align=left;whiteSpace=wrap;html=1;" parent="dH7iZlgDa5DfNUpbSnMx-104" vertex="1">
          <mxGeometry x="1150" width="280" height="70" as="geometry">
            <mxRectangle width="280" height="70" as="alternateBounds" />
          </mxGeometry>
        </mxCell>
        <mxCell id="dH7iZlgDa5DfNUpbSnMx-109" value="&lt;font style=&quot;font-size: 30px;&quot;&gt;支援者　実&lt;/font&gt;" style="connectable=0;recursiveResize=0;strokeColor=inherit;fillColor=none;align=left;whiteSpace=wrap;html=1;" parent="dH7iZlgDa5DfNUpbSnMx-104" vertex="1">
          <mxGeometry x="1430" width="270" height="70" as="geometry">
            <mxRectangle width="270" height="70" as="alternateBounds" />
          </mxGeometry>
        </mxCell>
        <mxCell id="dH7iZlgDa5DfNUpbSnMx-110" value="&lt;font style=&quot;font-size: 30px;&quot;&gt;18条の2の1項団体&lt;/font&gt;" style="connectable=0;recursiveResize=0;strokeColor=inherit;fillColor=none;align=center;whiteSpace=wrap;html=1;" parent="dH7iZlgDa5DfNUpbSnMx-104" vertex="1">
          <mxGeometry x="1700" width="270" height="70" as="geometry">
            <mxRectangle width="270" height="70" as="alternateBounds" />
          </mxGeometry>
        </mxCell>
        <mxCell id="dH7iZlgDa5DfNUpbSnMx-111" value="&lt;span style=&quot;font-size: 30px;&quot;&gt;当選議員　太郎&lt;/span&gt;" style="connectable=0;recursiveResize=0;strokeColor=inherit;fillColor=none;align=left;whiteSpace=wrap;html=1;" parent="dH7iZlgDa5DfNUpbSnMx-104" vertex="1">
          <mxGeometry x="1970" width="480" height="70" as="geometry">
            <mxRectangle width="480" height="70" as="alternateBounds" />
          </mxGeometry>
        </mxCell>
        <mxCell id="dH7iZlgDa5DfNUpbSnMx-116" value="&lt;span style=&quot;font-size: 30px;&quot;&gt;当選議員太郎君を褒め殺しにする会&lt;/span&gt;" style="connectable=0;recursiveResize=0;strokeColor=inherit;fillColor=none;align=left;whiteSpace=wrap;html=1;" parent="dH7iZlgDa5DfNUpbSnMx-117" vertex="1">
          <mxGeometry x="70" y="210" width="540" height="70" as="geometry">
            <mxRectangle width="540" height="70" as="alternateBounds" />
          </mxGeometry>
        </mxCell>
        <mxCell id="dH7iZlgDa5DfNUpbSnMx-118" value="&lt;span style=&quot;font-size: 30px;&quot;&gt;検索して指定&lt;/span&gt;" style="rounded=1;whiteSpace=wrap;html=1;" parent="cFaB45KztUIKXS-_cTrr-14" vertex="1">
          <mxGeometry x="670" y="1555" width="210" height="51" as="geometry" />
        </mxCell>
      </root>
    </mxGraphModel>
  </diagram>
</mxfile>
